<svg width="40" height="40" viewBox="0 0 40 40" fill="none" xmlns="http://www.w3.org/2000/svg">
<rect width="40" height="40" rx="8" fill="#003F62"/>
<path d="M16.25 16.875V15.625C16.25 14.6304 16.6451 13.6766 17.3483 12.9733C18.0516 12.2701 19.0054 11.875 20 11.875V11.875C20.9946 11.875 21.9484 12.2701 22.6517 12.9733C23.3549 13.6766 23.75 14.6304 23.75 15.625V16.875M13.125 16.875C12.9592 16.875 12.8003 16.9408 12.6831 17.0581C12.5658 17.1753 12.5 17.3342 12.5 17.5V25.9375C12.5 27.1187 13.5063 28.125 14.6875 28.125H25.3125C26.4937 28.125 27.5 27.1676 27.5 25.9863V17.5C27.5 17.3342 27.4342 17.1753 27.3169 17.0581C27.1997 16.9408 27.0408 16.875 26.875 16.875H13.125Z" stroke="white" stroke-width="1.5" stroke-linecap="round" stroke-linejoin="round"/>
<path d="M16.25 18.75V19.375C16.25 20.3696 16.6451 21.3234 17.3483 22.0267C18.0516 22.7299 19.0054 23.125 20 23.125C20.9946 23.125 21.9484 22.7299 22.6517 22.0267C23.3549 21.3234 23.75 20.3696 23.75 19.375V18.75" stroke="white" stroke-width="1.5" stroke-linecap="round" stroke-linejoin="round"/>
</svg>
